<svg width="53" height="38" viewBox="0 0 53 38" fill="none" xmlns="http://www.w3.org/2000/svg">
<path d="M26.0613 37.4875H21.3919L34.8972 0H39.4947L53 37.4875H48.3306L37.3396 5.93064H37.0523L26.0613 37.4875ZM27.7854 22.8439H46.6065V26.8709H27.7854V22.8439Z" fill="black"/>
<path d="M5.93524 12.5954L42.7156 12.5954V17.1349L5.93524 17.1349V12.5954Z" fill="black"/>
<path d="M16.4506 0H20.9044V26.7977C20.9044 29.1895 20.4734 31.2213 19.6114 32.8931C18.7493 34.5649 17.5341 35.834 15.9657 36.7004C14.3972 37.5668 12.5475 38 10.4163 38C8.40488 38 6.61495 37.6278 5.04652 36.8834C3.47809 36.1268 2.24489 35.053 1.34694 33.6619C0.448979 32.2707 0 30.6172 0 28.7014H4.38203C4.38203 29.763 4.63945 30.6904 5.15427 31.4836C5.68108 32.2646 6.39944 32.8748 7.30937 33.3141C8.2193 33.7534 9.25495 33.973 10.4163 33.973C11.6974 33.973 12.7869 33.6985 13.6849 33.1493C14.5828 32.6002 15.2653 31.7948 15.7322 30.7331C16.2111 29.6593 16.4506 28.3475 16.4506 26.7977V0Z" fill="black"/>
</svg>
